<svg width="154" height="67" viewBox="0 0 154 67" fill="none" xmlns="http://www.w3.org/2000/svg">
<path d="M99.7015 17.2731C98.5894 18.1976 97.0421 18.6842 95.0113 18.7815V20.0465H92.9322V18.7815C90.9014 18.6842 89.3058 18.1489 88.2421 17.2731C87.13 16.3486 86.5981 15.0836 86.5981 13.5266C86.5981 11.9696 87.13 10.6558 88.2421 9.78001C89.3542 8.85554 90.9014 8.36897 92.9322 8.223V7.00659H95.0113V8.223C97.0421 8.32032 98.5894 8.85554 99.7015 9.78001C100.814 10.7045 101.345 11.9696 101.345 13.5266C101.345 15.0836 100.814 16.3486 99.7015 17.2731ZM89.8377 15.9594C90.563 16.5433 91.5784 16.8839 92.9322 17.0298V9.97464C90.1278 10.1693 88.7256 11.337 88.7256 13.4779C88.774 14.5483 89.1124 15.3269 89.8377 15.9594ZM98.1542 15.9594C98.8795 15.3755 99.2179 14.5483 99.2179 13.4779C99.2179 12.4075 98.8795 11.5803 98.1542 10.9964C97.4289 10.4125 96.4135 10.072 95.0113 9.97464V17.0298C96.4135 16.8839 97.4289 16.5433 98.1542 15.9594Z" fill="#282828"/>
<path d="M105.068 19.0733C104.343 18.684 103.763 18.1001 103.328 17.3703C102.893 16.6404 102.699 15.8133 102.699 14.9375C102.699 14.013 102.893 13.2345 103.328 12.5046C103.763 11.7748 104.343 11.2396 105.068 10.8017C105.794 10.4124 106.664 10.2178 107.583 10.2178C108.501 10.2178 109.372 10.4124 110.097 10.8017C110.822 11.1909 111.403 11.7748 111.838 12.5046C112.273 13.2345 112.466 14.013 112.466 14.9375C112.466 15.8619 112.273 16.6891 111.838 17.3703C111.403 18.1001 110.822 18.6353 110.097 19.0733C109.372 19.4625 108.501 19.6571 107.583 19.6571C106.664 19.7058 105.842 19.4625 105.068 19.0733ZM109.565 17.0297C110.097 16.4945 110.339 15.8133 110.339 14.9375C110.339 14.0616 110.097 13.3804 109.565 12.8452C109.033 12.31 108.405 12.0667 107.583 12.0667C106.809 12.0667 106.132 12.31 105.649 12.8452C105.117 13.3804 104.875 14.0616 104.875 14.9375C104.875 15.8133 105.117 16.4945 105.649 17.0297C106.181 17.5649 106.809 17.8082 107.583 17.8082C108.405 17.8082 109.033 17.5649 109.565 17.0297Z" fill="#282828"/>
<path d="M114.642 10.3152H116.818V14.0617H121.46V10.3152H123.635V19.5599H121.46V15.9107H116.818V19.5599H114.642V10.3152Z" fill="#282828"/>
<path d="M135.53 10.3151V18.1488C135.53 21.4088 133.886 23.0144 130.55 23.0144C129.68 23.0144 128.809 22.9171 128.036 22.6738C127.262 22.4306 126.585 22.1386 126.053 21.7007L127.02 20.095C127.407 20.4356 127.939 20.6789 128.568 20.9222C129.196 21.1168 129.825 21.2141 130.453 21.2141C131.469 21.2141 132.194 20.9709 132.678 20.533C133.161 20.095 133.403 19.3652 133.403 18.4407V17.9542C133.016 18.3434 132.581 18.684 132.049 18.8786C131.517 19.0733 130.937 19.1706 130.308 19.1706C129.438 19.1706 128.664 18.9759 127.939 18.5867C127.214 18.1974 126.682 17.6622 126.247 16.981C125.86 16.2998 125.618 15.5213 125.618 14.6455C125.618 13.7697 125.812 12.9912 126.247 12.31C126.634 11.6288 127.214 11.0936 127.939 10.753C128.664 10.3637 129.438 10.2178 130.308 10.2178C130.985 10.2178 131.565 10.3151 132.146 10.5584C132.677 10.8017 133.161 11.0936 133.499 11.5802V10.3637H135.53V10.3151ZM132.629 16.5918C133.161 16.1052 133.403 15.4727 133.403 14.6942C133.403 13.9157 133.161 13.2831 132.629 12.7966C132.097 12.31 131.42 12.0667 130.598 12.0667C129.776 12.0667 129.099 12.31 128.568 12.7966C128.036 13.2831 127.794 13.9157 127.794 14.6942C127.794 15.4727 128.036 16.1052 128.568 16.5918C129.099 17.0783 129.776 17.3216 130.598 17.3216C131.42 17.3216 132.097 17.0783 132.629 16.5918Z" fill="#282828"/>
<path d="M89.8377 37.5143C88.8707 36.9791 88.097 36.2492 87.5168 35.2761C86.9366 34.3516 86.6948 33.2812 86.6948 32.0648C86.6948 30.897 86.9849 29.8266 87.5168 28.8534C88.097 27.929 88.8707 27.1505 89.8377 26.6152C90.8047 26.08 91.9168 25.7881 93.1256 25.7881C94.0926 25.7881 95.0113 25.9827 95.8333 26.3233C96.6553 26.6639 97.3322 27.1505 97.9124 27.8317L96.4619 29.194C95.5915 28.2696 94.5278 27.783 93.2223 27.783C92.4003 27.783 91.675 27.9776 90.9981 28.3182C90.3212 28.6588 89.8377 29.194 89.4509 29.8266C89.0641 30.4591 88.919 31.189 88.919 32.0161C88.919 32.8433 89.1124 33.5731 89.4509 34.2057C89.8377 34.8382 90.3212 35.3734 90.9981 35.714C91.675 36.0546 92.4003 36.2492 93.2223 36.2492C94.4795 36.2492 95.5915 35.7627 96.4619 34.7895L97.9124 36.1519C97.3322 36.8331 96.6553 37.3197 95.8333 37.6603C95.0113 38.0009 94.0926 38.1955 93.1256 38.1955C91.9168 38.3415 90.8047 38.0495 89.8377 37.5143Z" fill="#282828"/>
<path d="M106.132 38.1467L103.763 34.9353L101.394 38.1467H99.0244L102.602 33.427L99.1695 28.8533H101.587L103.86 31.87L106.132 28.8533H108.453L105.02 33.3783L108.598 38.098H106.132V38.1467Z" fill="#282828"/>
<path d="M110.145 27.0043C109.903 26.761 109.758 26.4691 109.758 26.0798C109.758 25.6906 109.903 25.3986 110.145 25.1554C110.387 24.9121 110.725 24.7661 111.112 24.7661C111.499 24.7661 111.837 24.8634 112.079 25.1067C112.321 25.35 112.466 25.6419 112.466 25.9825C112.466 26.3718 112.321 26.6637 112.079 26.9557C111.837 27.1989 111.499 27.3449 111.112 27.3449C110.774 27.3936 110.435 27.2476 110.145 27.0043ZM110.048 28.9019H112.224V38.1467H110.048V28.9019Z" fill="#282828"/>
<path d="M124.119 28.902V36.7357C124.119 39.9957 122.475 41.6013 119.139 41.6013C118.269 41.6013 117.398 41.504 116.625 41.2608C115.851 41.0175 115.174 40.7255 114.642 40.2876L115.609 38.682C115.996 39.0226 116.528 39.2658 117.156 39.5091C117.785 39.7037 118.414 39.8011 119.042 39.8011C120.058 39.8011 120.783 39.5578 121.266 39.1199C121.75 38.682 121.992 37.9521 121.992 37.0276V36.5411C121.605 36.9303 121.17 37.2709 120.638 37.4655C120.106 37.6602 119.526 37.7575 118.897 37.7575C118.027 37.7575 117.253 37.5629 116.528 37.1736C115.803 36.7844 115.271 36.2491 114.836 35.5679C114.449 34.8867 114.207 34.1082 114.207 33.2324C114.207 32.3566 114.4 31.5781 114.836 30.8969C115.222 30.2157 115.803 29.6805 116.528 29.3399C117.253 28.9507 118.027 28.8047 118.897 28.8047C119.574 28.8047 120.154 28.902 120.735 29.1453C121.266 29.3886 121.75 29.6805 122.088 30.1671V28.9507H124.119V28.902ZM121.218 35.1787C121.75 34.6921 121.992 34.0596 121.992 33.2811C121.992 32.5026 121.75 31.87 121.218 31.3835C120.686 30.8969 120.009 30.6536 119.187 30.6536C118.365 30.6536 117.688 30.8969 117.156 31.3835C116.625 31.87 116.383 32.5026 116.383 33.2811C116.383 34.0596 116.625 34.6921 117.156 35.1787C117.688 35.6653 118.365 35.9085 119.187 35.9085C120.058 35.9085 120.686 35.6653 121.218 35.1787Z" fill="#282828"/>
<path d="M126.585 28.9021H128.761V32.6486H133.403V28.9021H135.578V38.1468H133.403V34.4976H128.761V38.1468H126.585V28.9021Z" fill="#282828"/>
<path d="M147.376 28.9019V38.1467H145.345V36.9789C145.007 37.4168 144.572 37.7574 144.04 37.952C143.508 38.1953 142.928 38.2926 142.299 38.2926C141.38 38.2926 140.607 38.098 139.881 37.7088C139.156 37.3195 138.624 36.7843 138.237 36.0544C137.851 35.3246 137.657 34.4974 137.657 33.573C137.657 32.6485 137.851 31.7727 138.237 31.0915C138.624 30.3616 139.204 29.8264 139.881 29.4372C140.607 29.0479 141.38 28.8533 142.299 28.8533C142.879 28.8533 143.459 28.9506 143.943 29.1452C144.426 29.3398 144.862 29.6804 145.248 30.0697V28.9506H147.376V28.9019ZM144.475 35.6165C145.007 35.0813 145.248 34.4001 145.248 33.5243C145.248 32.6485 145.007 31.9673 144.475 31.4321C143.943 30.8968 143.314 30.6536 142.492 30.6536C141.719 30.6536 141.042 30.8968 140.558 31.4321C140.026 31.9673 139.785 32.6485 139.785 33.5243C139.785 34.4001 140.026 35.0813 140.558 35.6165C141.09 36.1517 141.719 36.395 142.492 36.395C143.314 36.4437 143.991 36.1517 144.475 35.6165Z" fill="#282828"/>
<path d="M89.6926 56.101C88.7739 55.5658 88.0003 54.8359 87.5168 53.8628C86.9849 52.9383 86.7432 51.8679 86.7432 50.6514C86.7432 49.4837 86.9849 48.4132 87.5168 47.4401C88.0487 46.5156 88.7739 45.7371 89.6926 45.2019C90.6113 44.6667 91.675 44.3748 92.8355 44.3748C93.8509 44.3748 94.7695 44.5694 95.6399 44.91C96.4619 45.2506 97.1871 45.7371 97.719 46.4183L96.3168 47.8294C95.4465 46.8562 94.3344 46.3697 92.9805 46.3697C91.9652 46.3697 91.0948 46.7103 90.3695 47.3428C89.6443 47.9753 89.2091 48.8025 89.064 49.8729H94.4794V51.6732H89.1124C89.3058 52.6464 89.741 53.4249 90.4662 54.0574C91.1915 54.6413 92.0135 54.9819 93.0289 54.9819C94.3827 54.9819 95.4465 54.4953 96.3652 53.5222L97.7673 54.8846C97.2355 55.5658 96.5102 56.0523 95.6882 56.3929C94.8662 56.7335 93.9476 56.9281 92.8838 56.9281C91.675 56.9281 90.6597 56.6362 89.6926 56.101Z" fill="#282828"/>
<path d="M107.97 54.1548C107.97 54.9819 107.68 55.6145 107.051 56.101C106.423 56.5389 105.504 56.7822 104.295 56.7822H99.605V47.5375H104.102C105.214 47.5375 106.084 47.7321 106.761 48.17C107.39 48.6079 107.728 49.1918 107.728 49.9216C107.728 50.4082 107.583 50.7975 107.341 51.1381C107.099 51.4787 106.761 51.7706 106.278 51.9652C107.39 52.2572 107.97 53.0357 107.97 54.1548ZM101.636 51.3327H103.908C105.02 51.3327 105.601 50.9434 105.601 50.1649C105.601 49.4351 105.02 49.0458 103.908 49.0458H101.636V51.3327ZM105.891 54.0088C105.891 53.6195 105.746 53.2789 105.456 53.0843C105.165 52.8897 104.73 52.7924 104.15 52.7924H101.636V55.1766H104.102C105.31 55.1766 105.891 54.7873 105.891 54.0088Z" fill="#282828"/>
<path d="M117.785 47.9754C118.51 48.3646 119.042 48.8998 119.429 49.6297C119.816 50.3595 120.009 51.1867 120.009 52.1112C120.009 53.0356 119.816 53.8628 119.429 54.5926C119.042 55.3225 118.462 55.8577 117.785 56.247C117.06 56.6362 116.286 56.8308 115.367 56.8308C114.11 56.8308 113.143 56.3929 112.418 55.5658V60.0422H110.242V47.4888H112.273V48.7052C112.611 48.2673 113.047 47.9267 113.578 47.7321C114.11 47.5374 114.691 47.3915 115.319 47.3915C116.238 47.3915 117.06 47.5861 117.785 47.9754ZM117.06 54.2034C117.592 53.6682 117.833 52.987 117.833 52.1112C117.833 51.2353 117.592 50.5542 117.06 50.0189C116.528 49.4837 115.899 49.2404 115.126 49.2404C114.594 49.2404 114.159 49.3377 113.724 49.581C113.288 49.8243 112.998 50.1649 112.756 50.6028C112.515 51.0407 112.418 51.5273 112.418 52.1112C112.418 52.695 112.515 53.1816 112.756 53.6195C112.998 54.0574 113.337 54.398 113.724 54.6413C114.159 54.8846 114.594 54.9819 115.126 54.9819C115.899 55.0306 116.576 54.7386 117.06 54.2034Z" fill="#282828"/>
<path d="M123.732 56.247C123.007 55.8577 122.427 55.2738 121.991 54.544C121.556 53.8141 121.363 52.987 121.363 52.1112C121.363 51.1867 121.556 50.4082 121.991 49.6783C122.427 48.9485 123.007 48.4133 123.732 47.9754C124.457 47.5861 125.328 47.3915 126.246 47.3915C127.165 47.3915 128.035 47.5861 128.761 47.9754C129.486 48.3646 130.066 48.9485 130.501 49.6783C130.936 50.4082 131.13 51.1867 131.13 52.1112C131.13 53.0356 130.936 53.8628 130.501 54.544C130.066 55.2738 129.486 55.8091 128.761 56.247C128.035 56.6362 127.165 56.8308 126.246 56.8308C125.328 56.8795 124.506 56.6849 123.732 56.247ZM128.229 54.2034C128.761 53.6682 129.002 52.987 129.002 52.1112C129.002 51.2353 128.761 50.5542 128.229 50.0189C127.697 49.4837 127.068 49.2404 126.246 49.2404C125.473 49.2404 124.796 49.4837 124.312 50.0189C123.78 50.5542 123.539 51.2353 123.539 52.1112C123.539 52.987 123.78 53.6682 124.312 54.2034C124.844 54.7386 125.473 54.9819 126.246 54.9819C127.068 55.0305 127.697 54.7386 128.229 54.2034Z" fill="#282828"/>
<path d="M142.106 47.4888V56.7335H139.978V49.2891H135.433V56.7335H133.257V47.4888H142.106Z" fill="#282828"/>
<path d="M154 47.4888V56.7335H151.97V55.5171C151.631 55.955 151.196 56.2956 150.664 56.4902C150.132 56.7335 149.552 56.8308 148.923 56.8308C148.005 56.8308 147.231 56.6362 146.506 56.247C145.781 55.8577 145.249 55.3225 144.862 54.5926C144.475 53.8628 144.282 53.0356 144.282 52.1112C144.282 51.1867 144.475 50.3109 144.862 49.6297C145.249 48.8998 145.829 48.3646 146.506 47.9754C147.231 47.5861 148.005 47.3915 148.923 47.3915C149.504 47.3915 150.084 47.4888 150.567 47.6834C151.051 47.878 151.486 48.2186 151.873 48.6079V47.4888H154ZM151.099 54.2034C151.631 53.6682 151.873 52.987 151.873 52.1112C151.873 51.2353 151.631 50.5542 151.099 50.0189C150.567 49.4837 149.939 49.2404 149.117 49.2404C148.343 49.2404 147.666 49.4837 147.183 50.0189C146.651 50.5542 146.409 51.2353 146.409 52.1112C146.409 52.987 146.651 53.6682 147.183 54.2034C147.715 54.7386 148.343 54.9819 149.117 54.9819C149.939 55.0305 150.567 54.7386 151.099 54.2034Z" fill="#282828"/>
<path d="M55.5564 28.6587H29.6399H12.5718C11.1212 28.6587 9.71902 29.2912 8.70363 30.3617L0.628906 39.1198L9.3322 38.3413H35.2003H52.2685C53.719 38.3413 55.1212 37.7088 56.1366 36.6384L64.2113 27.8315L55.5564 28.6587Z" fill="url(#paint0_linear)"/>
<path d="M62.4704 28.6587H55.5078C53.332 17.9056 43.855 9.82861 32.5408 9.82861C24.7078 9.82861 17.7452 13.7211 13.4902 19.6572L5.56055 13.7698C11.6045 5.44953 21.3715 0 32.4441 0C48.1583 0 61.31 10.9477 64.7913 25.6906C65.1298 27.199 64.0177 28.6587 62.4704 28.6587Z" fill="url(#paint1_linear)"/>
<path d="M2.36938 38.3413H9.33202C11.5078 49.0944 20.9848 57.1714 32.2991 57.1714C40.132 57.1714 47.0947 53.2789 51.3496 47.3428L59.3276 53.2302C53.2837 61.5991 43.4683 67 32.4441 67C16.7298 67 3.57818 56.0523 0.0968566 41.3094C-0.289957 39.801 0.822131 38.3413 2.36938 38.3413Z" fill="url(#paint2_linear)"/>
<defs>
<linearGradient id="paint0_linear" x1="9.32355" y1="33.499" x2="75.9064" y2="33.499" gradientUnits="userSpaceOnUse">
<stop offset="0.00723453" stop-color="#1ACEC4"/>
<stop offset="1" stop-color="#1699B4"/>
</linearGradient>
<linearGradient id="paint1_linear" x1="25.7121" y1="6.89341" x2="53.4825" y2="33.5596" gradientUnits="userSpaceOnUse">
<stop offset="0.00723453" stop-color="#1ACEC4"/>
<stop offset="1" stop-color="#1699B4"/>
</linearGradient>
<linearGradient id="paint2_linear" x1="59.28" y1="52.6727" x2="0.000154321" y2="52.6727" gradientUnits="userSpaceOnUse">
<stop offset="0.00723453" stop-color="#1ACEC4"/>
<stop offset="1" stop-color="#1699B4"/>
</linearGradient>
</defs>
</svg>
